<?xml version="1.0" encoding="UTF-8"?>
<svg width="37px" height="32px" viewBox="0 0 37 32" version="1.1" xmlns="http://www.w3.org/2000/svg" xmlns:xlink="http://www.w3.org/1999/xlink">
    <!-- Generator: Sketch 49.3 (51167) - http://www.bohemiancoding.com/sketch -->
    <title>02_Design/Icons/02_Medium-Light/Communications/sentiment-smile-m-l</title>
    <desc>Created with Sketch.</desc>
    <defs>
        <path d="M2,15.9934082 L2,29.9957275 L8,29.9957275 L8,15.9934082 L2,15.9934082 Z M10,13.9934082 L10,31.9957275 L0,31.9957275 L0,13.9934082 L10,13.9934082 Z M11,31.9980469 L11,13.9993896 C11.6702894,13.8191352 15.8035608,11.1056222 16.6708487,4.84430461 C19.3336016,1.25536778 25.0266246,3.52432321 25.2520623,6.39403545 C25.4023542,8.30717695 25.4775312,10.3299659 25.4775935,12.4624023 L33.5188328,12.4624023 C35.9077267,12.4624023 36.5769975,13.5785356 36.5769975,15.8730029 C36.5769975,16.5970866 35.8644284,34.9952393 31.9120085,34.9952393 L19.0430802,34.9952393 C16.7574002,34.9952393 12.9201374,32.00447 11,31.9980469 Z M18.5583497,5.7132011 C17.7829498,10.1095931 15.2982976,13.6872113 13,15.2233724 L13,30.3982122 C13.6651631,30.6577698 14.5100039,31.0705957 15.7798912,31.7106909 C15.9646912,31.8038406 16.1072517,31.8753186 16.2446845,31.9435832 C17.7063011,32.6695867 18.5859202,32.9952393 19.0430802,32.9952393 L27.3269175,32.9952393 C29.6824855,32.9952393 29.7825581,32.9952393 31.6766553,32.9650216 C31.9063113,32.6737311 32.1685394,32.1512705 32.425738,31.4340778 C32.943823,29.9894095 33.3881974,27.9245877 33.746891,25.4219047 C34.0359061,23.4053835 34.2548614,21.2136852 34.4088371,19.0259122 C34.5088573,17.6047681 34.5769975,16.1710944 34.5769975,15.8730029 C34.5769975,14.4549572 34.583128,14.4624023 33.5188328,14.4624023 L25.4775935,14.4624023 C24.3730467,14.4624023 23.4776257,13.5670074 23.4775935,12.4624607 C23.4775327,10.3809748 23.4042916,8.41027629 23.2582052,6.55066814 C23.2249436,6.12726365 22.4638865,5.42492915 21.358579,5.129234 C20.2574296,4.83465124 19.2574607,5.03141568 18.5583497,5.7132011 Z" id="path-1"></path>
    </defs>
    <g id="BlueChain" stroke="none" stroke-width="1" fill="none" fill-rule="evenodd">
        <g id="1160_04_Hover-state" transform="translate(-106.000000, -337.000000)">
            <g id="02_Design/Icons/02_Medium-Light/Communications/thumbs-up-m-l" transform="translate(106.000000, 334.000000)">
                <mask id="mask-2" fill="white">
                    <use xlink:href="#path-1"></use>
                </mask>
                <use id="Mask" fill="#232323" fill-rule="nonzero" xlink:href="#path-1"></use>
                <g id="Overrides/Icon-Colors/Inverse_default" mask="url(#mask-2)" fill="#FDFDFD" fill-rule="evenodd">
                    <rect id="color" x="0" y="0" width="38" height="38"></rect>
                </g>
            </g>
        </g>
    </g>
</svg>