<?xml version="1.0" encoding="UTF-8"?>
<svg width="37px" height="33px" viewBox="0 0 37 33" version="1.1" xmlns="http://www.w3.org/2000/svg" xmlns:xlink="http://www.w3.org/1999/xlink">
    <!-- Generator: Sketch 49.3 (51167) - http://www.bohemiancoding.com/sketch -->
    <title>thumbs-down-l</title>
    <defs>
        <path d="M11,4 C12.9201374,4.00642308 16.7574002,0.995239258 19.0430802,0.995239258 L31.9120085,0.995239258 C35.8644284,0.995239258 36.8696899,20.0950317 36.4932251,21.3581543 C36.2850952,22.1677856 36.1455688,23.5359192 33.3481445,23.5359192 L25.4776611,23.5359192 C25.428833,26.0527445 25.3479614,28.1173299 25.2350464,29.7296753 C24.7411499,32.883667 18.9486237,34.4750214 16.678299,31.1511688 C15.8078766,25.4822235 12.7611694,22.9470825 11,21.9771118 L11,4 Z M12.9901123,20.2252379 L12.9901123,6.00000819 C12.9901123,5.63964844 13.0318921,5.67984093 15.7926819,4.28192725 C15.9739464,4.19014477 16.113613,4.11978567 16.2483066,4.05254155 C17.7115309,3.32204502 18.5888211,2.99523926 19.0430802,2.99523926 L27.3269175,2.99523926 C29.6772587,2.99523926 29.7821029,2.99523926 31.6758347,3.04042707 C31.9187377,3.35512881 32.1940855,3.91145354 32.4639238,4.66979294 C33.0080723,6.19903951 33.4779021,8.38529764 33.8456925,10.9833577 C34.412101,14.9844495 34.6950976,20.3891248 34.5765433,20.7869007 C34.5455427,20.9020427 34.5455427,20.9020427 34.5358367,20.9411853 C34.4431949,21.3166459 34.4400263,21.3301779 34.416362,21.3882072 C34.2584868,21.4679255 33.919689,21.5359192 33.3481445,21.5359192 L25.4776611,21.5359192 C24.3882124,21.5359192 23.4991695,22.4078813 23.4780374,23.4971251 C23.430892,25.9272172 23.3537452,27.9241982 23.2472994,29.4834154 C22.9411131,30.8870049 19.8755703,31.590187 18.5641369,30.3027687 C17.65663,25.2807148 16.1456654,21.9631707 12.9901123,20.2252379 Z M2,6 L8,6 L8,20.0023193 L2,20.0023193 L2,6 Z M10,4 L10,22.0023193 L-1.8e-15,22.0023193 L-1.8e-15,4 L10,4 Z" id="path-1"></path>
    </defs>
    <g id="BlueChain" stroke="none" stroke-width="1" fill="none" fill-rule="evenodd">
        <g id="1160_05" transform="translate(-299.000000, -336.000000)">
            <g id="02_Design/Icons/02_Medium-Light/Communications/sentiment-sad-m-l" transform="translate(299.000000, 336.000000)">
                <mask id="mask-2" fill="white">
                    <use xlink:href="#path-1"></use>
                </mask>
                <use id="Mask" fill="#F2F4F8" xlink:href="#path-1"></use>
            </g>
        </g>
    </g>
</svg>