<?xml version="1.0" encoding="UTF-8"?>
<svg width="37px" height="33px" viewBox="0 0 37 33" version="1.1" xmlns="http://www.w3.org/2000/svg" xmlns:xlink="http://www.w3.org/1999/xlink">
    <!-- Generator: Sketch 49.3 (51167) - http://www.bohemiancoding.com/sketch -->
    <title>thumbs-down-l</title>
    <defs>
        <path d="M11,4 C12.9201374,4.00642308 16.7574002,0.995239258 19.0430802,0.995239258 L31.9120085,0.995239258 C35.8644284,0.995239258 36.8696899,20.0950317 36.4932251,21.3581543 C36.2850952,22.1677856 36.1455688,23.5359192 33.3481445,23.5359192 L25.4776611,23.5359192 C25.428833,26.0527445 25.3479614,28.1173299 25.2350464,29.7296753 C24.7411499,32.883667 18.9486237,34.4750214 16.678299,31.1511688 C15.8078766,25.4822235 12.7611694,22.9470825 11,21.9771118 L11,4 Z M10,4 L10,22.0023193 L-1.8e-15,22.0023193 L-1.8e-15,4 L10,4 Z" id="path-1"></path>
    </defs>
    <g id="BlueChain" stroke="none" stroke-width="1" fill="none" fill-rule="evenodd">
        <g id="1160_04_Hover-state" transform="translate(-299.000000, -336.000000)">
            <g id="02_Design/Icons/02_Medium-Light/Communications/sentiment-sad-m-l" transform="translate(299.000000, 336.000000)">
                <mask id="mask-2" fill="white">
                    <use xlink:href="#path-1"></use>
                </mask>
                <use id="Mask" fill="#B1E6FF" xlink:href="#path-1"></use>
            </g>
        </g>
    </g>
</svg>