<svg id="Layer_1" data-name="Layer 1" xmlns="http://www.w3.org/2000/svg" viewBox="0 0 572 317"><defs><style>.cls-1{fill:#fff;}</style></defs><path class="cls-1" d="M161.65,176.1c0,21.45-18.63,28.39-37.27,28.39-18.95,0-37.43-7.1-38.38-28.71h21.32c.16,9.79,8.37,13.73,17.22,13.73,6.47,0,14.68-2.53,14.68-10.41,0-6.79-9.31-9.16-25.43-12.63-12.94-2.83-25.9-7.41-25.9-21.77,0-20.82,18-26.19,35.54-26.19,17.85,0,34.28,6,36,26H138.12c-.63-8.67-7.27-11-15.32-11-5,0-12.48.94-12.48,7.57,0,8.05,12.64,9.15,25.43,12.15C148.86,156.22,161.65,161,161.65,176.1Zm87,8c0,7.42.79,14.83,2.85,18.15H228.8a33.47,33.47,0,0,1-1.58-7.89c-7.1,7.41-17.53,10.09-27.48,10.09-15.48,0-27.79-7.73-27.79-24.45,0-18.46,13.89-22.87,27.79-24.77,13.74-2.05,26.54-1.58,26.54-10.73,0-9.62-6.64-11-14.53-11-8.53,0-14.06,3.47-14.85,12.31H174.47c1.26-21,20.06-27.3,38.38-27.3,16.27,0,35.85,3.63,35.85,23.2Zm-22.42-21.77c-3.8,3.32-11.69,3.47-18.64,4.73-6.95,1.42-13.27,3.79-13.27,12,0,8.36,6.48,10.41,13.74,10.41,17.53,0,18.17-13.89,18.17-18.78Zm123.6,0c0,21.77-12,42.12-35.86,42.12-9.79,0-19.11-4.26-24.48-12.3h-.31V231H266.8V120.72h21.32v10.41h.32c5.37-8.67,14.21-12.62,24.32-12.62C338.34,118.51,349.88,139.18,349.88,162.37Zm-22.43-.63c0-12.93-5.21-26.35-19.58-26.35-14.69,0-19.43,13.1-19.43,26.35s5.05,25.88,19.59,25.88S327.45,175,327.45,161.74Zm119.66.63c0,21.77-12,42.12-35.85,42.12-9.79,0-19.11-4.26-24.48-12.3h-.31V231H364V120.72h21.32v10.41h.31c5.37-8.67,14.22-12.62,24.33-12.62C435.58,118.51,447.11,139.18,447.11,162.37Zm-22.43-.63c0-12.93-5.21-26.35-19.58-26.35-14.69,0-19.43,13.1-19.43,26.35s5.06,25.88,19.59,25.88C420,187.62,424.68,175,424.68,161.74Zm37.22,40.54h22.43V120.72H461.9Zm11.22-90.54a12.87,12.87,0,1,0-12.88-12.87A12.87,12.87,0,0,0,473.12,111.74Z"/></svg>