<svg width="108px" height="40px" viewBox="0 0 108 40" version="1.1" xmlns="http://www.w3.org/2000/svg" xmlns:xlink="http://www.w3.org/1999/xlink">
    <title>sappi-logo-white</title>
    <g id="Section-1" stroke="none" stroke-width="1" fill="none" fill-rule="evenodd">
        <g id="Logo-Group" transform="translate(-23.000000, -23.000000)" fill="#FFFFFF" fill-rule="nonzero">
            <path d="M33.5094766,55.0072734 C38.5404766,55.0072734 43.6574766,53.1152734 43.6574766,47.2672734 C43.6574766,43.4027628 40.6049243,42.025517 37.2869675,41.1951166 L36.8331356,41.0850875 C36.75731,41.0672535 36.6814127,41.0496564 36.6054766,41.0322734 C33.1654766,40.2152734 29.6824766,39.9142734 29.6824766,37.7212734 C29.6824766,35.8722734 31.7034766,35.6572734 33.0794766,35.6572734 C35.2724766,35.6572734 37.0784766,36.3022734 37.2504766,38.6672734 L43.0554766,38.6672734 C42.5824766,33.2062734 38.0674766,31.5722734 33.2514766,31.5722734 C28.4784766,31.5722734 23.5764766,33.0342734 23.5764766,38.7102734 C23.5764766,42.6662734 27.0594766,43.8272734 30.6284766,44.6442734 C34.9714766,45.5472734 37.5514766,46.2352734 37.5514766,48.0842734 C37.5514766,50.2342734 35.2724766,50.9222734 33.5524766,50.9222734 C31.1874766,50.9222734 28.8654766,49.8042734 28.8654766,47.1812734 L23.0604766,47.1812734 C23.2754766,53.0722734 28.3494766,55.0072734 33.5094766,55.0072734 Z M53.8551406,54.9442852 C56.6071406,54.9442852 59.4021406,54.2132852 61.3371406,52.1922852 C61.3801406,52.9232852 61.5521406,53.6542852 61.7671406,54.3422852 L67.9591406,54.3422852 C67.4001406,53.4392852 67.1851406,51.4182852 67.1851406,49.3972852 L67.1851406,37.8302852 C67.1851406,32.4982852 61.8531406,31.5092852 57.4241406,31.5092852 C52.4361406,31.5092852 47.3191406,33.2722852 46.9751406,38.9482852 L53.0811406,38.9482852 C53.2961406,36.5402852 54.7581406,35.5942852 57.1231406,35.5942852 C59.2731406,35.5942852 61.0791406,36.0242852 61.0791406,38.6042852 C61.1982175,40.906439 58.0747382,40.9919301 54.6680109,41.4099911 L54.1797282,41.4722518 C50.34476,41.9819946 46.3315582,43.0602192 46.2871406,48.2792852 C46.2871406,52.8372852 49.5981406,54.9442852 53.8551406,54.9442852 Z M56.1341406,50.8592852 C54.1561406,50.8592852 52.3931406,50.2572852 52.3931406,48.0212852 C52.3931406,45.7852852 54.1131406,45.0972852 56.0051406,44.7532852 C57.8971406,44.4092852 60.0471406,44.3662852 61.0791406,43.4632852 L61.0791406,45.7422852 C61.0791406,47.1182852 60.9071406,50.8592852 56.1341406,50.8592852 Z M77.8593476,62.2429922 L77.8593476,51.6649922 L77.9453476,51.6649922 C79.4503476,53.8579922 81.9013476,55.0189922 84.6103476,55.0189922 C91.1463476,55.0189922 94.3713476,49.4719922 94.3713476,43.5379922 C94.3713476,37.2169922 91.2323476,31.5839922 84.2663476,31.5839922 C81.5143476,31.5839922 79.1493476,32.6159922 77.6443476,35.0239922 L77.5583476,35.0239922 L77.5583476,32.1859922 L71.7533476,32.1859922 L71.7533476,62.2429922 L77.8593476,62.2429922 Z M82.9763476,50.4179922 C79.0203476,50.4179922 77.6443476,46.9779922 77.6443476,43.3659922 C77.6443476,39.7539922 78.9343476,36.1849922 82.9333476,36.1849922 C86.8463476,36.1849922 88.2653476,39.7969922 88.2653476,43.3659922 C88.2653476,46.9779922 86.9753476,50.4179922 82.9763476,50.4179922 Z M103.922703,62.1707266 L103.922703,51.5927266 L104.008703,51.5927266 C105.513703,53.7857266 107.964703,54.9467266 110.673703,54.9467266 C117.209703,54.9467266 120.434703,49.3997266 120.434703,43.4657266 C120.434703,37.1447266 117.295703,31.5117266 110.329703,31.5117266 C107.577703,31.5117266 105.212703,32.5437266 103.707703,34.9517266 L103.621703,34.9517266 L103.621703,32.1137266 L97.816703,32.1137266 L97.816703,62.1707266 L103.922703,62.1707266 Z M109.039703,50.3457266 C105.083703,50.3457266 103.707703,46.9057266 103.707703,43.2937266 C103.707703,39.6817266 104.997703,36.1127266 108.996703,36.1127266 C112.909703,36.1127266 114.328703,39.7247266 114.328703,43.2937266 C114.328703,46.9057266 113.038703,50.3457266 109.039703,50.3457266 Z M130.441262,32.1112852 L130.441262,54.3422852 L124.335262,54.3422852 L124.335262,32.1112852 L130.441262,32.1112852 Z M127.320801,23.065918 C129.25137,23.065918 130.816406,24.6309538 130.816406,26.5615234 C130.816406,28.492093 129.25137,30.0571289 127.320801,30.0571289 C125.390231,30.0571289 123.825195,28.492093 123.825195,26.5615234 C123.825195,24.6309538 125.390231,23.065918 127.320801,23.065918 Z" id="sappi-letterforms"></path>
        </g>
    </g>
</svg>