<?xml version="1.0" encoding="UTF-8"?>
<svg width="280px" height="260px" viewBox="0 0 280 260" version="1.1" xmlns="http://www.w3.org/2000/svg" xmlns:xlink="http://www.w3.org/1999/xlink">
    <title>dino-svg</title>
    <g id="dino-svg" stroke="none" stroke-width="1" fill="none" fill-rule="evenodd">
        <g id="Group" transform="translate(8.000000, 5.000000)">
            <path d="M75.5623338,10.0795066 C93.5623338,0.0795066304 142.562334,4.07950663 165.562334,18.0795066 C188.562334,32.0795066 203.562334,56.0795066 205.562334,67.0795066 C207.562334,78.0795066 208.562334,108.079507 208.562334,113.079507 C208.562334,118.079507 213.562334,130.079507 202.562334,132.079507 C195.229,133.41284 180.895667,130.41284 159.562334,123.079507 C150.895667,125.746173 144.562334,127.41284 140.562334,128.079507 C136.562334,128.746173 122.562334,125.079507 98.5623338,117.079507 C94.5623338,123.746173 92.2290004,128.079507 91.5623338,130.079507 C90.8956671,132.079507 90.8956671,139.079507 91.5623338,151.079507 C98.8956671,153.746173 102.895667,155.746173 103.562334,157.079507 C104.229,158.41284 105.562334,160.079507 107.562334,162.079507 C116.229,159.41284 121.895667,157.746173 124.562334,157.079507 C128.562334,156.079507 145.562334,150.079507 153.562334,157.079507 C161.562334,164.079507 168.562334,172.079507 165.562334,178.079507 C162.562334,184.079507 161.562334,192.079507 153.562334,193.079507 C145.562334,194.079507 136.562334,194.079507 131.562334,200.079507 C128.229,204.079507 127.229,211.079507 128.562334,221.079507 C153.229,221.079507 173.229,221.079507 188.562334,221.079507 C211.562334,221.079507 232.562334,219.079507 236.562334,211.079507 C240.562334,203.079507 241.562334,190.079507 239.562334,184.079507 C238.229,180.079507 237.229,175.079507 236.562334,169.079507 C243.229,177.079507 247.562334,183.079507 249.562334,187.079507 C252.562334,193.079507 260.562334,197.079507 257.562334,206.079507 C254.562334,215.079507 238.562334,235.079507 220.562334,240.079507 C202.562334,245.079507 142.562334,244.079507 98.5623338,240.079507 C54.5623338,236.079507 20.5623338,231.079507 17.5623338,230.079507 C14.5623338,229.079507 7.56233376,224.079507 5.56233376,211.079507 C3.56233376,198.079507 8.56233376,146.079507 9.56233376,132.079507 C10.5623338,118.079507 13.5623338,101.079507 17.5623338,93.0795066 C21.5623338,85.0795066 34.5623338,56.0795066 41.5623338,44.0795066 C48.5623338,32.0795066 57.5623338,20.0795066 75.5623338,10.0795066 Z" id="Path-11" fill="#6CE872"></path>
            <path d="M163.488115,129.259194 C125.131622,138.005387 98.4660745,129.503535 71.6404588,101.657632" id="Path-2" stroke="#222222" stroke-width="3"></path>
            <path d="M45.5623338,30.0795066 L42.5623338,34.0795066 C4.21895382,101.296817 2.49668979,109.854606 0.0779587621,196.192788 C-0.158724507,204.641352 -0.42039241,222.74706 8.47639626,230.540444 C16.9390182,237.953508 75.7439993,243.576674 85.7303025,244.302163 C117.150317,246.584778 195.647951,257.155382 229.839678,240.364663 C236.932671,236.881467 255.931974,228.118131 260.288896,217.2006 C267.461786,199.226848 255.851125,186.332643 245.609209,174.778725 C241.978645,170.683082 237.98018,156.43707 235.933428,161.5131 C230.735605,174.403913 236.538644,189.479008 234.15999,203.173257 C232.918417,210.321171 223.256744,214.624267 217.363115,215.501382 C196.15516,218.65764 146.226135,218.212509 132.210771,216.2631 C122.393891,214.897662 113.887908,208.615299 104.40999,205.716225 C95.2563657,202.916346 85.5984122,201.99276 76.44124,199.204507 C74.5312326,198.622931 47.3132055,183.81004 45.00374,183.864663" id="Path-3" stroke="#222222" stroke-width="3"></path>
            <path d="M48.988115,144.91935 C74.9677699,133.640881 117.470569,146.703415 116.339678,180.48185 C116.281182,182.229057 115.338335,184.022918 114.042803,185.196694 C109.249604,189.53942 103.631344,192.873777 98.425615,196.712319" id="Path-4" stroke="#222222" stroke-width="3"></path>
            <path d="M111.281084,158.16935 C117.029782,155.96883 122.456653,152.586881 128.527178,151.567788 C153.724312,147.337805 183.876215,163.415494 165.249834,190.329507 C156.59625,202.833421 131.402908,195.089731 129.988115,211.786538 C129.843467,213.493618 131.498532,214.862059 132.25374,216.399819" id="Path-5" stroke="#222222" stroke-width="3"></path>
            <path d="M164.924883,56.262368 C157.924883,62.262368 158.924883,70.262368 170.924883,71.262368" id="Path-7" stroke="#222222" stroke-width="3" fill="#F2FFBA"></path>
            <path d="M34.6013963,105.470132 C24.9133436,119.655302 21.8211318,115.998925 16.5623338,134.079507 C16.0594591,135.80847 13.9437449,144.868408 15.5623338,144.079507 C18.4377269,142.678037 21.6402718,132.424454 23.84749,134.739663 C27.2902126,138.350824 18.9555766,145.825374 21.5623338,150.079507 C23.0367214,152.485653 26.1175608,139.736646 28.1248338,141.720132 C31.0259088,144.586827 25.5226453,152.76698 29.4451463,153.884194 C34.2272121,155.246232 35.1877407,134.851638 35.6560838,133.837319 C38.4535843,127.778604 42.9425419,122.655028 46.5857713,117.063882" id="Path-8" stroke="#222222" stroke-width="3"></path>
            <path d="M98.144365,128.528725 C94.7739657,137.343616 96.230687,131.861155 95.7420213,145.376382" id="Path-9" stroke="#222222" stroke-width="3"></path>
            <path d="M126.761553,92.7045066 C123.5803,130.318904 123.139503,91.01703 131.855303,103.884194 C134.183232,107.320925 131.428168,112.924376 134.050615,116.142007 C135.366336,117.75634 138.001355,112.406783 139.738115,113.556069 C143.27874,115.899048 142.922319,122.042141 146.476396,124.364663 C148.217657,125.502544 150.248225,120.640371 152.081865,121.622475 C155.176678,123.280069 154.919779,128.485767 157.831865,130.446694 C160.000285,131.906855 163.870711,128.872341 165.667803,130.770913 C168.834555,134.116489 166.874196,140.808708 170.421709,143.747475 C172.941213,145.834639 177.088146,141.76536 180.19124,142.802163 C187.000073,145.077125 178.247432,153.634474 188.62874,143.434975" id="Path-10" stroke="#222222" stroke-width="3" fill="#FFFFFF"></path>
            <path d="M45.1717088,30.4427879 C55.4870114,14.8532261 66.7477266,2.4185471 87.0388963,0.98575663 C121.040452,-1.41514512 137.342477,-0.253199025 169.874834,13.8802879 C175.502771,16.3253114 179.579443,21.4658654 183.800615,25.9193504 C213.727593,57.4933675 213.319087,70.3394761 212.831865,116.313882 C212.581081,139.977907 196.954145,142.893793 178.640459,133.173257 C171.860243,129.574455 165.510365,125.095986 159.683428,120.099038 C150.292928,112.046122 140.334757,104.223872 133.144365,94.1576316 C127.943711,86.8769396 126.589678,77.50659 123.312334,69.1810691" id="Path" stroke="#222222" stroke-width="3"></path>
            <path d="M153.577959,50.6185691 C166.551228,54.9691433 171.14347,61.4691782 170.945146,75.0756004" id="Path-6" stroke="#222222" stroke-width="3"></path>
        </g>
    </g>
</svg>